<svg xmlns="http://www.w3.org/2000/svg" viewBox="0 0 100 100" width="100" height="100">
  <!-- Placeholder Brain Logo for Symbiont -->
  <defs>
    <linearGradient id="brainGradient" x1="0%" y1="0%" x2="100%" y2="100%">
      <stop offset="0%" style="stop-color:#10a37f;stop-opacity:1" />
      <stop offset="100%" style="stop-color:#0d8a6a;stop-opacity:1" />
    </linearGradient>
  </defs>
  
  <!-- Background circle -->
  <circle cx="50" cy="50" r="48" fill="url(#brainGradient)"/>
  
  <!-- Simple brain shape -->
  <g fill="white" transform="translate(20, 22) scale(0.6)">
    <!-- Left hemisphere -->
    <path d="M45 10c-15 0-25 8-28 20c-2 8 0 15 5 22c-8 3-12 10-10 18c2 10 12 15 22 13c5 15 18 20 30 15c10-4 18-15 18-28c0-20-15-40-37-40z"/>
    <!-- Brain folds -->
    <path d="M35 35c5-3 12-3 18 0M30 50c8-5 20-5 28 0M38 65c4-2 10-2 14 0" 
          stroke="rgba(16,163,127,0.6)" stroke-width="3" fill="none" stroke-linecap="round"/>
  </g>
</svg>

